<svg xmlns="http://www.w3.org/2000/svg" viewBox="0 0 200 300" width="200" height="300" fill="none">
  <rect width="200" height="300" fill="#F0F0F0"/>
  <rect x="10" y="10" width="180" height="280" rx="4" stroke="#D8D8D8" stroke-width="1.5" stroke-dasharray="5 3"/>
  <g transform="translate(100,138)" stroke="#C2C2C2" stroke-width="1.8" stroke-linecap="round" stroke-linejoin="round">
    <path d="M-24,22 L-24,-22 Q-24,-26 -20,-26 L-4,-26 L-4,26 L-20,26 Q-24,26 -24,22Z"/>
    <path d="M24,22 L24,-22 Q24,-26 20,-26 L4,-26 L4,26 L20,26 Q24,26 24,22Z"/>
    <line x1="-4" y1="-26" x2="-4" y2="26"/>
    <line x1="4"  y1="-26" x2="4"  y2="26"/>
    <line x1="-19" y1="-12" x2="-7" y2="-12"/>
    <line x1="-19" y1="-4"  x2="-7" y2="-4"/>
    <line x1="-19" y1="4"   x2="-7" y2="4"/>
    <line x1="7"  y1="-12" x2="19" y2="-12"/>
    <line x1="7"  y1="-4"  x2="19" y2="-4"/>
    <line x1="7"  y1="4"   x2="19" y2="4"/>
  </g>
  <text x="100" y="208" font-family="system-ui,-apple-system,sans-serif" font-size="11" fill="#ADADAD" text-anchor="middle" font-weight="500">Cover unavailable</text>
</svg>
